STARTFONT 2.1
COMMENT Exported 030723
FONT msgothic
SIZE 39 120 120
FONTBOUNDINGBOX 20 38 0 -23
STARTPROPERTIES 6
COPYRIGHT "(C)Copyright theMatrixProject"
RESOLUTION_X 120
RESOLUTION_Y 120
FONT_ASCENT 16
FONT_DESCENT 23
DEFAULT_CHAR 96
ENDPROPERTIES
CHARS 255
STARTCHAR 001
ENCODING 1
SWIDTH 1440 0
DWIDTH 20 0
BBX 4 15 3 0
BITMAP
60
60
00
E0
F0
30
30
30
30
30
30
30
30
30
30
ENDCHAR
STARTCHAR 002
ENCODING 2
SWIDTH 1440 0
DWIDTH 20 0
BBX 8 16 1 -4
BITMAP
FE
FF
03
03
03
33
33
03
03
33
33
03
03
03
03
03
ENDCHAR
STARTCHAR 003
ENCODING 3
SWIDTH 1440 0
DWIDTH 20 0
BBX 8 16 1 -4
BITMAP
FE
FF
03
03
03
7B
33
33
33
03
03
03
03
03
03
03
ENDCHAR
STARTCHAR 004
ENCODING 4
SWIDTH 1440 0
DWIDTH 20 0
BBX 10 15 0 0
BITMAP
3000
B000
B000
3F80
3FC0
00C0
00C0
00C0
00C0
00C0
01C0
0380
0700
0E00
0C00
ENDCHAR
STARTCHAR 005
ENCODING 5
SWIDTH 1440 0
DWIDTH 20 0
BBX 10 15 0 0
BITMAP
3000
B000
B000
3F80
3FC0
00C0
00C0
0CC0
0CC0
00C0
01C0
0380
0700
0E00
0C00
ENDCHAR
STARTCHAR 006
ENCODING 6
SWIDTH 1440 0
DWIDTH 20 0
BBX 8 15 1 0
BITMAP
03
03
00
DB
DB
DB
DB
DB
DB
F3
E3
C3
C7
FE
7C
ENDCHAR
STARTCHAR 007
ENCODING 7
SWIDTH 1440 0
DWIDTH 20 0
BBX 8 15 1 0
BITMAP
C0
C0
00
DB
DB
DB
DB
DB
DB
F3
E3
C3
C7
FE
7C
ENDCHAR
STARTCHAR 008
ENCODING 8
SWIDTH 1440 0
DWIDTH 20 0
BBX 8 15 1 0
BITMAP
03
03
00
DB
DB
DB
DB
DB
DB
F3
EF
CF
C3
FE
7C
ENDCHAR
STARTCHAR 009
ENCODING 9
SWIDTH 1440 0
DWIDTH 20 0
BBX 8 15 1 0
BITMAP
C0
C0
00
DB
DB
DB
DB
DB
DB
F3
EF
CF
C3
FE
7C
ENDCHAR
STARTCHAR 010
ENCODING 10
SWIDTH 1440 0
DWIDTH 20 0
BBX 8 12 1 0
BITMAP
FC
FE
06
06
06
36
36
06
06
06
FF
FF
ENDCHAR
STARTCHAR 011
ENCODING 11
SWIDTH 1440 0
DWIDTH 20 0
BBX 6 12 2 0
BITMAP
78
7C
0C
0C
CC
DC
3C
7C
EC
CC
CC
CC
ENDCHAR
STARTCHAR 012
ENCODING 12
SWIDTH 1440 0
DWIDTH 20 0
BBX 8 12 1 0
BITMAP
FF
FF
0C
0C
0C
6C
6C
0C
0C
0C
0C
0C
ENDCHAR
STARTCHAR 013
ENCODING 13
SWIDTH 1440 0
DWIDTH 20 0
BBX 8 12 1 0
BITMAP
FE
FF
03
03
03
DB
DB
C3
C3
C3
C3
C3
ENDCHAR
STARTCHAR 014
ENCODING 14
SWIDTH 1440 0
DWIDTH 20 0
BBX 5 12 2 0
BITMAP
70
78
18
18
18
D8
D8
18
18
18
18
18
ENDCHAR
STARTCHAR 015
ENCODING 15
SWIDTH 1440 0
DWIDTH 20 0
BBX 7 12 1 0
BITMAP
7E
7E
18
18
18
D8
D8
0C
0C
0C
0C
0C
ENDCHAR
STARTCHAR 016
ENCODING 16
SWIDTH 1440 0
DWIDTH 20 0
BBX 8 12 1 0
BITMAP
C6
CF
DB
DB
C3
DB
DB
C3
C3
C7
FE
7C
ENDCHAR
STARTCHAR 017
ENCODING 17
SWIDTH 1440 0
DWIDTH 20 0
BBX 5 6 2 6
BITMAP
70
78
18
D8
D8
18
ENDCHAR
STARTCHAR 018
ENCODING 18
SWIDTH 1440 0
DWIDTH 20 0
BBX 8 16 1 -4
BITMAP
FE
FF
03
03
03
33
33
03
03
03
03
03
03
03
03
03
ENDCHAR
STARTCHAR 019
ENCODING 19
SWIDTH 1440 0
DWIDTH 20 0
BBX 8 12 1 0
BITMAP
FE
FF
03
03
03
33
33
03
03
03
FF
FE
ENDCHAR
STARTCHAR 020
ENCODING 20
SWIDTH 1440 0
DWIDTH 20 0
BBX 8 15 1 0
BITMAP
C0
C0
C0
FE
FF
03
03
33
33
03
07
0E
1C
38
30
ENDCHAR
STARTCHAR 021
ENCODING 21
SWIDTH 1440 0
DWIDTH 20 0
BBX 8 12 1 0
BITMAP
CC
DE
77
63
C3
DB
DB
C3
C3
C3
DF
DF
ENDCHAR
STARTCHAR 022
ENCODING 22
SWIDTH 1440 0
DWIDTH 20 0
BBX 5 12 2 0
BITMAP
70
78
18
18
18
D8
D8
18
18
18
F8
F8
ENDCHAR
STARTCHAR 023
ENCODING 23
SWIDTH 1440 0
DWIDTH 20 0
BBX 8 12 1 0
BITMAP
FE
FF
C3
C3
C3
DB
DB
C3
C3
E7
7E
3C
ENDCHAR
STARTCHAR 024
ENCODING 24
SWIDTH 1440 0
DWIDTH 20 0
BBX 8 16 1 -4
BITMAP
FE
FF
C3
DB
DB
E3
E3
03
03
03
03
03
03
03
03
03
ENDCHAR
STARTCHAR 025
ENCODING 25
SWIDTH 1440 0
DWIDTH 20 0
BBX 8 12 1 0
BITMAP
FE
FF
C3
DB
DB
E3
E3
03
03
03
FF
FF
ENDCHAR
STARTCHAR 026
ENCODING 26
SWIDTH 1440 0
DWIDTH 20 0
BBX 8 12 1 0
BITMAP
C3
C3
C3
E3
77
3E
1C
CE
C7
03
FF
FF
ENDCHAR
STARTCHAR 027
ENCODING 27
SWIDTH 1440 0
DWIDTH 20 0
BBX 8 16 1 -4
BITMAP
FE
FF
03
03
1B
DB
C3
C7
DE
DC
C0
C0
C0
C0
C0
C0
ENDCHAR
STARTCHAR 028
ENCODING 28
SWIDTH 1440 0
DWIDTH 20 0
BBX 8 12 1 0
BITMAP
FE
FF
03
03
03
33
33
03
03
03
03
03
ENDCHAR
STARTCHAR 029
ENCODING 29
SWIDTH 1440 0
DWIDTH 20 0
BBX 8 12 1 0
BITMAP
DB
DB
DB
DB
DB
DB
F3
EF
CF
C3
FE
7C
ENDCHAR
STARTCHAR 030
ENCODING 30
SWIDTH 1440 0
DWIDTH 20 0
BBX 9 12 0 0
BITMAP
7F00
7F80
3180
3180
3180
3780
3780
3180
3180
3180
F180
F180
ENDCHAR
STARTCHAR 031
ENCODING 31
SWIDTH 1440 0
DWIDTH 20 0
BBX 0 0 0 0
BITMAP
ENDCHAR
STARTCHAR 032
ENCODING 32
SWIDTH 1440 0
DWIDTH 20 0
BBX 0 0 0 0
BITMAP
ENDCHAR
STARTCHAR 033
ENCODING 33
SWIDTH 1440 0
DWIDTH 20 0
BBX 4 12 3 0
BITMAP
60
F0
F0
F0
F0
F0
60
60
60
00
60
60
ENDCHAR
STARTCHAR 034
ENCODING 34
SWIDTH 1440 0
DWIDTH 20 0
BBX 6 3 2 9
BITMAP
CC
CC
CC
ENDCHAR
STARTCHAR 035
ENCODING 35
SWIDTH 1440 0
DWIDTH 20 0
BBX 8 12 1 0
BITMAP
66
66
66
FF
FF
66
66
FF
FF
66
66
66
ENDCHAR
STARTCHAR 036
ENCODING 36
SWIDTH 1440 0
DWIDTH 20 0
BBX 8 16 1 -2
BITMAP
18
18
3C
7E
E7
E0
70
38
0C
06
07
E7
7E
3C
18
18
ENDCHAR
STARTCHAR 037
ENCODING 37
SWIDTH 1440 0
DWIDTH 20 0
BBX 10 13 0 0
BITMAP
7000
DB00
DB00
7600
0600
0C00
0C00
1800
1800
3380
36C0
66C0
6380
ENDCHAR
STARTCHAR 038
ENCODING 38
SWIDTH 1440 0
DWIDTH 20 0
BBX 9 12 1 0
BITMAP
1C00
3600
6300
3600
1C00
3000
6780
C300
C200
C600
7F00
3D80
ENDCHAR
STARTCHAR 039
ENCODING 39
SWIDTH 1440 0
DWIDTH 20 0
BBX 2 3 4 9
BITMAP
C0
C0
C0
ENDCHAR
STARTCHAR 040
ENCODING 40
SWIDTH 1440 0
DWIDTH 20 0
BBX 5 16 2 -3
BITMAP
18
30
60
40
C0
C0
C0
C0
C0
C0
C0
C0
40
60
30
18
ENDCHAR
STARTCHAR 041
ENCODING 41
SWIDTH 1440 0
DWIDTH 20 0
BBX 5 16 2 -3
BITMAP
C0
60
30
10
18
18
18
18
18
18
18
18
10
30
60
C0
ENDCHAR
STARTCHAR 042
ENCODING 42
SWIDTH 1440 0
DWIDTH 20 0
BBX 8 7 1 2
BITMAP
C3
66
3C
FF
3C
66
C3
ENDCHAR
STARTCHAR 043
ENCODING 43
SWIDTH 1440 0
DWIDTH 20 0
BBX 8 8 1 3
BITMAP
18
18
18
FF
FF
18
18
18
ENDCHAR
STARTCHAR 044
ENCODING 44
SWIDTH 1440 0
DWIDTH 20 0
BBX 2 4 4 -2
BITMAP
C0
C0
40
80
ENDCHAR
STARTCHAR 045
ENCODING 45
SWIDTH 1440 0
DWIDTH 20 0
BBX 6 2 2 6
BITMAP
FC
FC
ENDCHAR
STARTCHAR 046
ENCODING 46
SWIDTH 1440 0
DWIDTH 20 0
BBX 9 8 1 -17
BITMAP
3E00
7F00
FF80
FF80
FF80
FF80
7F00
3E00
ENDCHAR
STARTCHAR 047
ENCODING 47
SWIDTH 1440 0
DWIDTH 20 0
BBX 8 14 1 -2
BITMAP
03
03
06
06
0C
0C
18
18
30
30
60
60
C0
C0
ENDCHAR
STARTCHAR 048
ENCODING 48
SWIDTH 1440 0
DWIDTH 20 0
BBX 19 28 0 -17
BITMAP
01F000
07FC00
0FFE00
1FBF00
3E0F80
3C0780
7C07C0
7C07C0
7803C0
7803C0
F803E0
F803E0
F803E0
F803E0
F803E0
F803E0
F803E0
F803E0
7803C0
7803C0
7C07C0
7C07C0
3E0780
3E0F80
1FBF00
0FFE00
07FC00
01F000
ENDCHAR
STARTCHAR 049
ENCODING 49
SWIDTH 1440 0
DWIDTH 20 0
BBX 4 12 2 0
BITMAP
30
F0
F0
30
30
30
30
30
30
30
30
30
ENDCHAR
STARTCHAR 050
ENCODING 50
SWIDTH 1440 0
DWIDTH 20 0
BBX 8 12 1 0
BITMAP
3C
7E
E7
03
07
0E
1C
38
70
E0
FF
FF
ENDCHAR
STARTCHAR 051
ENCODING 51
SWIDTH 1440 0
DWIDTH 20 0
BBX 17 27 1 -17
BITMAP
0FF800
1FFC00
3F7E00
3C1F00
7C1F00
780F00
780F00
000F00
001F00
001F00
003E00
01FC00
01F800
01FC00
003F00
001F00
000F80
000F80
F80F80
F80F80
F80F80
F80F80
FC1F00
7E3F00
3FFE00
1FFC00
07F000
ENDCHAR
STARTCHAR 052
ENCODING 52
SWIDTH 1440 0
DWIDTH 20 0
BBX 19 28 1 -17
BITMAP
001E00
003E00
003E00
007E00
00FE00
01FE00
01FE00
03FE00
07FE00
07BE00
0F3E00
0F3E00
1E3E00
3E3E00
3C3E00
7C3E00
7C3E00
F83E00
FFFFE0
FFFFE0
FFFFE0
003E00
003E00
003E00
003E00
003E00
003E00
003E00
ENDCHAR
STARTCHAR 053
ENCODING 53
SWIDTH 1440 0
DWIDTH 20 0
BBX 8 12 1 0
BITMAP
FF
FF
C0
C0
FC
FE
07
03
03
E7
7E
3C
ENDCHAR
STARTCHAR 054
ENCODING 54
SWIDTH 1440 0
DWIDTH 20 0
BBX 8 12 1 0
BITMAP
3C
7E
E7
C0
C0
DC
FE
E7
C3
E7
7E
3C
ENDCHAR
STARTCHAR 055
ENCODING 55
SWIDTH 1440 0
DWIDTH 20 0
BBX 7 12 2 0
BITMAP
FE
FE
06
0C
18
30
30
30
30
30
30
30
ENDCHAR
STARTCHAR 056
ENCODING 56
SWIDTH 1440 0
DWIDTH 20 0
BBX 8 12 1 0
BITMAP
3C
7E
E7
C3
66
3C
7E
E7
C3
E7
7E
3C
ENDCHAR
STARTCHAR 057
ENCODING 57
SWIDTH 1440 0
DWIDTH 20 0
BBX 8 12 1 0
BITMAP
3C
7E
E7
C3
E7
7F
3B
03
03
E7
7E
3C
ENDCHAR
STARTCHAR 058
ENCODING 58
SWIDTH 1440 0
DWIDTH 20 0
BBX 2 7 4 0
BITMAP
C0
C0
00
00
00
C0
C0
ENDCHAR
STARTCHAR 059
ENCODING 59
SWIDTH 1440 0
DWIDTH 20 0
BBX 2 9 4 -2
BITMAP
C0
C0
00
00
00
C0
C0
40
80
ENDCHAR
STARTCHAR 060
ENCODING 60
SWIDTH 1440 0
DWIDTH 20 0
BBX 7 11 1 0
BITMAP
06
0C
18
30
60
C0
60
30
18
0C
06
ENDCHAR
STARTCHAR 061
ENCODING 61
SWIDTH 1440 0
DWIDTH 20 0
BBX 5 6 2 3
BITMAP
F8
F8
00
00
F8
F8
ENDCHAR
STARTCHAR 062
ENCODING 62
SWIDTH 1440 0
DWIDTH 20 0
BBX 7 11 2 0
BITMAP
C0
60
30
18
0C
06
0C
18
30
60
C0
ENDCHAR
STARTCHAR 063
ENCODING 63
SWIDTH 1440 0
DWIDTH 20 0
BBX 8 12 1 0
BITMAP
3C
7E
E7
C3
07
0E
1C
18
18
00
18
18
ENDCHAR
STARTCHAR 064
ENCODING 64
SWIDTH 1440 0
DWIDTH 20 0
BBX 8 13 1 -1
BITMAP
3C
7E
C3
C3
CF
DF
D3
D3
DF
CF
C0
7F
3F
ENDCHAR
STARTCHAR 065
ENCODING 65
SWIDTH 1440 0
DWIDTH 20 0
BBX 8 12 1 0
BITMAP
18
3C
66
C3
C3
C3
C3
FF
FF
C3
C3
C3
ENDCHAR
STARTCHAR 066
ENCODING 66
SWIDTH 1440 0
DWIDTH 20 0
BBX 8 12 1 0
BITMAP
FC
FE
C3
C3
C3
FE
FE
C3
C3
C3
FE
FC
ENDCHAR
STARTCHAR 067
ENCODING 67
SWIDTH 1440 0
DWIDTH 20 0
BBX 8 12 1 0
BITMAP
3C
7E
E7
C0
C0
C0
C0
C0
C0
E7
7E
3C
ENDCHAR
STARTCHAR 068
ENCODING 68
SWIDTH 1440 0
DWIDTH 20 0
BBX 8 12 1 0
BITMAP
FC
FE
C7
C3
C3
C3
C3
C3
C3
C7
FE
FC
ENDCHAR
STARTCHAR 069
ENCODING 69
SWIDTH 1440 0
DWIDTH 20 0
BBX 8 12 1 0
BITMAP
FF
FF
C0
C0
C0
FC
FC
C0
C0
C0
FF
FF
ENDCHAR
STARTCHAR 070
ENCODING 70
SWIDTH 1440 0
DWIDTH 20 0
BBX 8 12 1 0
BITMAP
FF
FF
C0
C0
C0
FC
FC
C0
C0
C0
C0
C0
ENDCHAR
STARTCHAR 071
ENCODING 71
SWIDTH 1440 0
DWIDTH 20 0
BBX 8 12 1 0
BITMAP
3C
7E
E7
C0
C0
C0
CF
CF
C3
E7
7F
3B
ENDCHAR
STARTCHAR 072
ENCODING 72
SWIDTH 1440 0
DWIDTH 20 0
BBX 8 12 1 0
BITMAP
C3
C3
C3
C3
C3
FF
FF
C3
C3
C3
C3
C3
ENDCHAR
STARTCHAR 073
ENCODING 73
SWIDTH 1440 0
DWIDTH 20 0
BBX 6 12 2 0
BITMAP
FC
FC
30
30
30
30
30
30
30
30
FC
FC
ENDCHAR
STARTCHAR 074
ENCODING 74
SWIDTH 1440 0
DWIDTH 20 0
BBX 8 12 1 0
BITMAP
03
03
03
03
03
03
03
03
03
E7
7E
3C
ENDCHAR
STARTCHAR 075
ENCODING 75
SWIDTH 1440 0
DWIDTH 20 0
BBX 8 12 1 0
BITMAP
C6
CE
DC
F8
F0
E0
F0
F8
DC
CE
C7
C3
ENDCHAR
STARTCHAR 076
ENCODING 76
SWIDTH 1440 0
DWIDTH 20 0
BBX 8 12 1 0
BITMAP
C0
C0
C0
C0
C0
C0
C0
C0
C0
C0
FF
FF
ENDCHAR
STARTCHAR 077
ENCODING 77
SWIDTH 1440 0
DWIDTH 20 0
BBX 8 12 1 0
BITMAP
C3
C3
E7
E7
FF
FF
DB
DB
C3
C3
C3
C3
ENDCHAR
STARTCHAR 078
ENCODING 78
SWIDTH 1440 0
DWIDTH 20 0
BBX 8 12 1 0
BITMAP
C3
E3
E3
F3
F3
DB
DB
CF
CF
C7
C7
C3
ENDCHAR
STARTCHAR 079
ENCODING 79
SWIDTH 1440 0
DWIDTH 20 0
BBX 8 12 1 0
BITMAP
3C
7E
E7
C3
C3
C3
C3
C3
C3
E7
7E
3C
ENDCHAR
STARTCHAR 080
ENCODING 80
SWIDTH 1440 0
DWIDTH 20 0
BBX 8 12 1 0
BITMAP
FC
FE
C7
C3
C3
C7
FE
FC
C0
C0
C0
C0
ENDCHAR
STARTCHAR 081
ENCODING 81
SWIDTH 1440 0
DWIDTH 20 0
BBX 8 12 1 0
BITMAP
3C
7E
E7
C3
C3
C3
C3
C3
CF
EF
7F
3B
ENDCHAR
STARTCHAR 082
ENCODING 82
SWIDTH 1440 0
DWIDTH 20 0
BBX 8 12 1 0
BITMAP
FC
FE
C7
C3
C3
C7
FE
FC
C6
C3
C3
C3
ENDCHAR
STARTCHAR 083
ENCODING 83
SWIDTH 1440 0
DWIDTH 20 0
BBX 8 12 1 0
BITMAP
3C
7E
E7
E0
70
38
0C
06
07
E7
7E
3C
ENDCHAR
STARTCHAR 084
ENCODING 84
SWIDTH 1440 0
DWIDTH 20 0
BBX 8 12 1 0
BITMAP
FF
FF
18
18
18
18
18
18
18
18
18
18
ENDCHAR
STARTCHAR 085
ENCODING 85
SWIDTH 1440 0
DWIDTH 20 0
BBX 8 12 1 0
BITMAP
C3
C3
C3
C3
C3
C3
C3
C3
C3
E7
7E
3C
ENDCHAR
STARTCHAR 086
ENCODING 86
SWIDTH 1440 0
DWIDTH 20 0
BBX 8 12 1 0
BITMAP
C3
C3
C3
C3
C3
C3
C3
C3
C3
66
3C
18
ENDCHAR
STARTCHAR 087
ENCODING 87
SWIDTH 1440 0
DWIDTH 20 0
BBX 8 12 1 0
BITMAP
C3
C3
C3
C3
DB
DB
DB
DB
DB
DB
FF
66
ENDCHAR
STARTCHAR 088
ENCODING 88
SWIDTH 1440 0
DWIDTH 20 0
BBX 8 12 1 0
BITMAP
C3
C3
66
66
3C
18
18
3C
66
66
C3
C3
ENDCHAR
STARTCHAR 089
ENCODING 89
SWIDTH 1440 0
DWIDTH 20 0
BBX 8 12 1 0
BITMAP
C3
C3
C3
C3
C3
66
3C
18
18
18
18
18
ENDCHAR
STARTCHAR 090
ENCODING 90
SWIDTH 1440 0
DWIDTH 20 0
BBX 8 12 1 0
BITMAP
FF
FF
03
07
0E
1C
38
70
E0
C0
FF
FF
ENDCHAR
STARTCHAR 091
ENCODING 91
SWIDTH 1440 0
DWIDTH 20 0
BBX 4 15 3 -3
BITMAP
F0
F0
C0
C0
C0
C0
C0
C0
C0
C0
C0
C0
C0
F0
F0
ENDCHAR
STARTCHAR 092
ENCODING 92
SWIDTH 1440 0
DWIDTH 20 0
BBX 8 14 1 -2
BITMAP
C0
C0
60
60
30
30
18
18
0C
0C
06
06
03
03
ENDCHAR
STARTCHAR 093
ENCODING 93
SWIDTH 1440 0
DWIDTH 20 0
BBX 4 15 3 -3
BITMAP
F0
F0
30
30
30
30
30
30
30
30
30
30
30
F0
F0
ENDCHAR
STARTCHAR 094
ENCODING 94
SWIDTH 1440 0
DWIDTH 20 0
BBX 8 4 1 11
BITMAP
18
3C
66
81
ENDCHAR
STARTCHAR 095
ENCODING 95
SWIDTH 1440 0
DWIDTH 20 0
BBX 8 2 1 -3
BITMAP
FF
FF
ENDCHAR
STARTCHAR 096
ENCODING 96
SWIDTH 1440 0
DWIDTH 20 0
BBX 4 3 3 12
BITMAP
E0
60
30
ENDCHAR
STARTCHAR 097
ENCODING 97
SWIDTH 1440 0
DWIDTH 20 0
BBX 8 9 1 0
BITMAP
7C
7E
03
7F
FF
C3
C3
FF
7F
ENDCHAR
STARTCHAR 098
ENCODING 98
SWIDTH 1440 0
DWIDTH 20 0
BBX 8 12 1 0
BITMAP
C0
C0
C0
DC
FE
E7
C3
C3
C3
E7
FE
DC
ENDCHAR
STARTCHAR 099
ENCODING 99
SWIDTH 1440 0
DWIDTH 20 0
BBX 8 9 1 0
BITMAP
3C
7E
E7
C0
C0
C0
E7
7E
3C
ENDCHAR
STARTCHAR 100
ENCODING 100
SWIDTH 1440 0
DWIDTH 20 0
BBX 8 12 1 0
BITMAP
03
03
03
3B
7F
E7
C3
C3
C3
E7
7F
3B
ENDCHAR
STARTCHAR 101
ENCODING 101
SWIDTH 1440 0
DWIDTH 20 0
BBX 8 9 1 0
BITMAP
3C
7E
E7
C3
FF
FF
E0
7E
3C
ENDCHAR
STARTCHAR 102
ENCODING 102
SWIDTH 1440 0
DWIDTH 20 0
BBX 8 12 1 0
BITMAP
1F
3F
30
30
FF
FF
30
30
30
30
30
30
ENDCHAR
STARTCHAR 103
ENCODING 103
SWIDTH 1440 0
DWIDTH 20 0
BBX 8 13 1 -4
BITMAP
3C
7E
E7
C3
C3
C3
E7
7F
3B
03
07
7E
7C
ENDCHAR
STARTCHAR 104
ENCODING 104
SWIDTH 1440 0
DWIDTH 20 0
BBX 8 12 1 0
BITMAP
C0
C0
C0
DC
FE
E7
C3
C3
C3
C3
C3
C3
ENDCHAR
STARTCHAR 105
ENCODING 105
SWIDTH 1440 0
DWIDTH 20 0
BBX 6 13 2 0
BITMAP
30
30
00
00
F0
F0
30
30
30
30
30
FC
FC
ENDCHAR
STARTCHAR 106
ENCODING 106
SWIDTH 1440 0
DWIDTH 20 0
BBX 5 17 2 -4
BITMAP
18
18
00
00
78
78
18
18
18
18
18
18
18
18
38
F0
E0
ENDCHAR
STARTCHAR 107
ENCODING 107
SWIDTH 1440 0
DWIDTH 20 0
BBX 8 12 1 0
BITMAP
C0
C0
C0
C6
CC
D8
F0
E0
F8
CC
C6
C3
ENDCHAR
STARTCHAR 108
ENCODING 108
SWIDTH 1440 0
DWIDTH 20 0
BBX 6 12 2 0
BITMAP
F0
F0
30
30
30
30
30
30
30
30
FC
FC
ENDCHAR
STARTCHAR 109
ENCODING 109
SWIDTH 1440 0
DWIDTH 20 0
BBX 8 9 1 0
BITMAP
DA
FF
DB
DB
DB
DB
DB
DB
DB
ENDCHAR
STARTCHAR 110
ENCODING 110
SWIDTH 1440 0
DWIDTH 20 0
BBX 8 9 1 0
BITMAP
DC
FE
E7
C3
C3
C3
C3
C3
C3
ENDCHAR
STARTCHAR 111
ENCODING 111
SWIDTH 1440 0
DWIDTH 20 0
BBX 8 9 1 0
BITMAP
3C
7E
E7
C3
C3
C3
E7
7E
3C
ENDCHAR
STARTCHAR 112
ENCODING 112
SWIDTH 1440 0
DWIDTH 20 0
BBX 8 13 1 -4
BITMAP
DC
FE
E7
C3
C3
C3
E7
FE
DC
C0
C0
C0
C0
ENDCHAR
STARTCHAR 113
ENCODING 113
SWIDTH 1440 0
DWIDTH 20 0
BBX 8 13 1 -4
BITMAP
3B
7F
E7
C3
C3
C3
E7
7F
3B
03
03
03
03
ENDCHAR
STARTCHAR 114
ENCODING 114
SWIDTH 1440 0
DWIDTH 20 0
BBX 8 9 1 0
BITMAP
DF
FF
F0
E0
C0
C0
C0
C0
C0
ENDCHAR
STARTCHAR 115
ENCODING 115
SWIDTH 1440 0
DWIDTH 20 0
BBX 8 9 1 0
BITMAP
3C
7E
C3
E0
7E
07
C3
7E
3C
ENDCHAR
STARTCHAR 116
ENCODING 116
SWIDTH 1440 0
DWIDTH 20 0
BBX 6 12 2 0
BITMAP
60
60
60
FC
FC
60
60
60
60
60
7C
3C
ENDCHAR
STARTCHAR 117
ENCODING 117
SWIDTH 1440 0
DWIDTH 20 0
BBX 8 9 1 0
BITMAP
C3
C3
C3
C3
C3
C3
E7
7F
3B
ENDCHAR
STARTCHAR 118
ENCODING 118
SWIDTH 1440 0
DWIDTH 20 0
BBX 8 9 1 0
BITMAP
C3
C3
C3
C3
C3
C3
66
3C
18
ENDCHAR
STARTCHAR 119
ENCODING 119
SWIDTH 1440 0
DWIDTH 20 0
BBX 8 9 1 0
BITMAP
C3
C3
C3
DB
DB
FF
FF
E7
42
ENDCHAR
STARTCHAR 120
ENCODING 120
SWIDTH 1440 0
DWIDTH 20 0
BBX 8 9 1 0
BITMAP
C3
E7
7E
3C
18
3C
7E
E7
C3
ENDCHAR
STARTCHAR 121
ENCODING 121
SWIDTH 1440 0
DWIDTH 20 0
BBX 8 13 1 -4
BITMAP
C3
C3
C3
C3
C3
C3
E7
7F
3B
03
03
7E
7C
ENDCHAR
STARTCHAR 122
ENCODING 122
SWIDTH 1440 0
DWIDTH 20 0
BBX 8 9 1 0
BITMAP
FF
FF
06
0C
18
30
60
FF
FF
ENDCHAR
STARTCHAR 123
ENCODING 123
SWIDTH 1440 0
DWIDTH 20 0
BBX 6 15 2 -3
BITMAP
1C
30
60
60
60
60
60
C0
60
60
60
60
60
30
1C
ENDCHAR
STARTCHAR 124
ENCODING 124
SWIDTH 1440 0
DWIDTH 20 0
BBX 2 13 4 -1
BITMAP
C0
C0
C0
C0
C0
C0
C0
C0
C0
C0
C0
C0
C0
ENDCHAR
STARTCHAR 125
ENCODING 125
SWIDTH 1440 0
DWIDTH 20 0
BBX 6 15 2 -3
BITMAP
E0
30
18
18
18
18
18
0C
18
18
18
18
18
30
E0
ENDCHAR
STARTCHAR 126
ENCODING 126
SWIDTH 1440 0
DWIDTH 20 0
BBX 8 3 1 10
BITMAP
71
DB
8E
ENDCHAR
STARTCHAR 127
ENCODING 127
SWIDTH 1440 0
DWIDTH 20 0
BBX 4 5 3 4
BITMAP
60
F0
F0
F0
60
ENDCHAR
STARTCHAR 128
ENCODING 128
SWIDTH 1440 0
DWIDTH 20 0
BBX 8 12 1 0
BITMAP
FF
FF
FF
FF
FF
FF
FF
FF
FF
FF
FF
FF
ENDCHAR
STARTCHAR 129
ENCODING 129
SWIDTH 1440 0
DWIDTH 20 0
BBX 8 12 1 0
BITMAP
FF
FF
FF
FF
FF
FF
FF
FF
FF
FF
FF
FF
ENDCHAR
STARTCHAR 130
ENCODING 130
SWIDTH 1440 0
DWIDTH 20 0
BBX 2 4 4 -2
BITMAP
C0
C0
40
80
ENDCHAR
STARTCHAR 131
ENCODING 131
SWIDTH 1440 0
DWIDTH 20 0
BBX 8 12 1 0
BITMAP
FF
FF
FF
FF
FF
FF
FF
FF
FF
FF
FF
FF
ENDCHAR
STARTCHAR 132
ENCODING 132
SWIDTH 1440 0
DWIDTH 20 0
BBX 6 4 2 -2
BITMAP
CC
CC
44
88
ENDCHAR
STARTCHAR 133
ENCODING 133
SWIDTH 1440 0
DWIDTH 20 0
BBX 8 2 1 0
BITMAP
DB
DB
ENDCHAR
STARTCHAR 134
ENCODING 134
SWIDTH 1440 0
DWIDTH 20 0
BBX 6 13 2 -1
BITMAP
30
30
FC
FC
30
30
30
30
30
30
30
30
30
ENDCHAR
STARTCHAR 135
ENCODING 135
SWIDTH 1440 0
DWIDTH 20 0
BBX 6 13 2 -1
BITMAP
30
30
FC
FC
30
30
30
30
FC
FC
30
30
30
ENDCHAR
STARTCHAR 136
ENCODING 136
SWIDTH 1440 0
DWIDTH 20 0
BBX 4 5 3 4
BITMAP
60
F0
F0
F0
60
ENDCHAR
STARTCHAR 137
ENCODING 137
SWIDTH 1440 0
DWIDTH 20 0
BBX 10 10 0 3
BITMAP
7100
DB00
DE00
7C00
1800
3000
7F80
F6C0
B6C0
1F80
ENDCHAR
STARTCHAR 138
ENCODING 138
SWIDTH 1440 0
DWIDTH 20 0
BBX 8 12 1 0
BITMAP
FF
FF
FF
FF
FF
FF
FF
FF
FF
FF
FF
FF
ENDCHAR
STARTCHAR 139
ENCODING 139
SWIDTH 1440 0
DWIDTH 20 0
BBX 4 5 3 3
BITMAP
30
60
C0
60
30
ENDCHAR
STARTCHAR 140
ENCODING 140
SWIDTH 1440 0
DWIDTH 20 0
BBX 8 12 1 0
BITMAP
FF
FF
FF
FF
FF
FF
FF
FF
FF
FF
FF
FF
ENDCHAR
STARTCHAR 141
ENCODING 141
SWIDTH 1440 0
DWIDTH 20 0
BBX 8 12 1 0
BITMAP
FF
FF
FF
FF
FF
FF
FF
FF
FF
FF
FF
FF
ENDCHAR
STARTCHAR 142
ENCODING 142
SWIDTH 1440 0
DWIDTH 20 0
BBX 8 12 1 0
BITMAP
FF
FF
FF
FF
FF
FF
FF
FF
FF
FF
FF
FF
ENDCHAR
STARTCHAR 143
ENCODING 143
SWIDTH 1440 0
DWIDTH 20 0
BBX 8 12 1 0
BITMAP
FF
FF
FF
FF
FF
FF
FF
FF
FF
FF
FF
FF
ENDCHAR
STARTCHAR 144
ENCODING 144
SWIDTH 1440 0
DWIDTH 20 0
BBX 8 12 1 0
BITMAP
FF
FF
FF
FF
FF
FF
FF
FF
FF
FF
FF
FF
ENDCHAR
STARTCHAR 145
ENCODING 145
SWIDTH 1440 0
DWIDTH 20 0
BBX 2 4 4 8
BITMAP
40
80
C0
C0
ENDCHAR
STARTCHAR 146
ENCODING 146
SWIDTH 1440 0
DWIDTH 20 0
BBX 2 4 4 8
BITMAP
C0
C0
40
80
ENDCHAR
STARTCHAR 147
ENCODING 147
SWIDTH 1440 0
DWIDTH 20 0
BBX 5 4 2 8
BITMAP
48
90
D8
D8
ENDCHAR
STARTCHAR 148
ENCODING 148
SWIDTH 1440 0
DWIDTH 20 0
BBX 6 4 2 8
BITMAP
CC
CC
44
88
ENDCHAR
STARTCHAR 149
ENCODING 149
SWIDTH 1440 0
DWIDTH 20 0
BBX 4 5 3 4
BITMAP
60
F0
F0
F0
60
ENDCHAR
STARTCHAR 150
ENCODING 150
SWIDTH 1440 0
DWIDTH 20 0
BBX 10 2 0 6
BITMAP
FFC0
FFC0
ENDCHAR
STARTCHAR 151
ENCODING 151
SWIDTH 1440 0
DWIDTH 20 0
BBX 8 2 1 6
BITMAP
FF
FF
ENDCHAR
STARTCHAR 152
ENCODING 152
SWIDTH 1440 0
DWIDTH 20 0
BBX 4 5 3 4
BITMAP
60
F0
F0
F0
60
ENDCHAR
STARTCHAR 153
ENCODING 153
SWIDTH 1440 0
DWIDTH 20 0
BBX 9 5 0 7
BITMAP
ED80
4D80
4A80
4880
4880
ENDCHAR
STARTCHAR 154
ENCODING 154
SWIDTH 1440 0
DWIDTH 20 0
BBX 8 12 1 0
BITMAP
FF
FF
FF
FF
FF
FF
FF
FF
FF
FF
FF
FF
ENDCHAR
STARTCHAR 155
ENCODING 155
SWIDTH 1440 0
DWIDTH 20 0
BBX 4 5 3 3
BITMAP
C0
60
30
60
C0
ENDCHAR
STARTCHAR 156
ENCODING 156
SWIDTH 1440 0
DWIDTH 20 0
BBX 8 12 1 0
BITMAP
FF
FF
FF
FF
FF
FF
FF
FF
FF
FF
FF
FF
ENDCHAR
STARTCHAR 157
ENCODING 157
SWIDTH 1440 0
DWIDTH 20 0
BBX 8 12 1 0
BITMAP
FF
FF
FF
FF
FF
FF
FF
FF
FF
FF
FF
FF
ENDCHAR
STARTCHAR 158
ENCODING 158
SWIDTH 1440 0
DWIDTH 20 0
BBX 8 12 1 0
BITMAP
FF
FF
FF
FF
FF
FF
FF
FF
FF
FF
FF
FF
ENDCHAR
STARTCHAR 159
ENCODING 159
SWIDTH 1440 0
DWIDTH 20 0
BBX 8 12 1 0
BITMAP
FF
FF
FF
FF
FF
FF
FF
FF
FF
FF
FF
FF
ENDCHAR
STARTCHAR 160
ENCODING 160
SWIDTH 1440 0
DWIDTH 20 0
BBX 0 0 0 0
BITMAP
ENDCHAR
STARTCHAR 161
ENCODING 161
SWIDTH 1440 0
DWIDTH 20 0
BBX 4 12 3 -4
BITMAP
60
60
00
60
60
60
F0
F0
F0
F0
F0
60
ENDCHAR
STARTCHAR 162
ENCODING 162
SWIDTH 1440 0
DWIDTH 20 0
BBX 8 13 1 -2
BITMAP
18
18
3C
7E
E7
C0
C0
C0
E7
7E
3C
18
18
ENDCHAR
STARTCHAR 163
ENCODING 163
SWIDTH 1440 0
DWIDTH 20 0
BBX 8 12 1 0
BITMAP
1C
3E
63
63
60
F8
60
60
60
63
FE
DC
ENDCHAR
STARTCHAR 164
ENCODING 164
SWIDTH 1440 0
DWIDTH 20 0
BBX 7 11 2 0
BITMAP
FA
8A
8A
AA
AA
AA
AA
AA
A2
A2
BE
ENDCHAR
STARTCHAR 165
ENCODING 165
SWIDTH 1440 0
DWIDTH 20 0
BBX 8 12 1 0
BITMAP
C3
C3
C3
C3
C3
7E
FF
FF
18
FF
FF
18
ENDCHAR
STARTCHAR 166
ENCODING 166
SWIDTH 1440 0
DWIDTH 20 0
BBX 2 12 4 0
BITMAP
C0
C0
C0
C0
C0
00
00
C0
C0
C0
C0
C0
ENDCHAR
STARTCHAR 167
ENCODING 167
SWIDTH 1440 0
DWIDTH 20 0
BBX 6 14 2 -2
BITMAP
78
CC
C0
70
78
D8
CC
CC
6C
78
38
0C
CC
78
ENDCHAR
STARTCHAR 168
ENCODING 168
SWIDTH 1440 0
DWIDTH 20 0
BBX 6 2 2 11
BITMAP
CC
CC
ENDCHAR
STARTCHAR 169
ENCODING 169
SWIDTH 1440 0
DWIDTH 20 0
BBX 10 10 0 0
BITMAP
1E00
2100
4C80
9240
9040
9040
9240
4C80
2100
1E00
ENDCHAR
STARTCHAR 170
ENCODING 170
SWIDTH 1440 0
DWIDTH 20 0
BBX 8 9 1 3
BITMAP
7C
06
7E
C6
C6
7E
00
FF
FF
ENDCHAR
STARTCHAR 171
ENCODING 171
SWIDTH 1440 0
DWIDTH 20 0
BBX 8 5 1 3
BITMAP
33
66
CC
66
33
ENDCHAR
STARTCHAR 172
ENCODING 172
SWIDTH 1440 0
DWIDTH 20 0
BBX 8 4 1 4
BITMAP
FF
FF
03
03
ENDCHAR
STARTCHAR 173
ENCODING 173
SWIDTH 1440 0
DWIDTH 20 0
BBX 8 2 1 5
BITMAP
FF
FF
ENDCHAR
STARTCHAR 174
ENCODING 174
SWIDTH 1440 0
DWIDTH 20 0
BBX 10 10 0 0
BITMAP
1E00
2100
5C80
9240
9240
9C40
9240
5280
2100
1E00
ENDCHAR
STARTCHAR 175
ENCODING 175
SWIDTH 1440 0
DWIDTH 20 0
BBX 7 2 2 13
BITMAP
FE
FE
ENDCHAR
STARTCHAR 176
ENCODING 176
SWIDTH 1440 0
DWIDTH 20 0
BBX 6 5 2 8
BITMAP
78
CC
CC
CC
78
ENDCHAR
STARTCHAR 177
ENCODING 177
SWIDTH 1440 0
DWIDTH 20 0
BBX 8 11 1 0
BITMAP
18
18
18
FF
FF
18
18
18
00
FF
FF
ENDCHAR
STARTCHAR 178
ENCODING 178
SWIDTH 1440 0
DWIDTH 20 0
BBX 5 6 3 6
BITMAP
70
98
18
10
60
F8
ENDCHAR
STARTCHAR 179
ENCODING 179
SWIDTH 1440 0
DWIDTH 20 0
BBX 5 6 3 6
BITMAP
70
98
30
18
98
70
ENDCHAR
STARTCHAR 180
ENCODING 180
SWIDTH 1440 0
DWIDTH 20 0
BBX 5 3 3 12
BITMAP
38
60
C0
ENDCHAR
STARTCHAR 181
ENCODING 181
SWIDTH 1440 0
DWIDTH 20 0
BBX 9 15 0 -4
BITMAP
6180
6180
6180
6180
6180
6180
6180
6180
7380
7F80
6D80
4000
4000
C000
C000
ENDCHAR
STARTCHAR 182
ENCODING 182
SWIDTH 1440 0
DWIDTH 20 0
BBX 8 12 1 0
BITMAP
7F
F6
F6
F6
F6
76
36
36
36
36
36
36
ENDCHAR
STARTCHAR 183
ENCODING 183
SWIDTH 1440 0
DWIDTH 20 0
BBX 4 4 3 5
BITMAP
60
F0
F0
60
ENDCHAR
STARTCHAR 184
ENCODING 184
SWIDTH 1440 0
DWIDTH 20 0
BBX 5 3 2 -3
BITMAP
30
98
70
ENDCHAR
STARTCHAR 185
ENCODING 185
SWIDTH 1440 0
DWIDTH 20 0
BBX 3 6 3 6
BITMAP
60
E0
60
60
60
60
ENDCHAR
STARTCHAR 186
ENCODING 186
SWIDTH 1440 0
DWIDTH 20 0
BBX 7 9 2 3
BITMAP
7C
EE
C6
C6
EE
7C
00
FE
FE
ENDCHAR
STARTCHAR 187
ENCODING 187
SWIDTH 1440 0
DWIDTH 20 0
BBX 8 5 1 3
BITMAP
CC
66
33
66
CC
ENDCHAR
STARTCHAR 188
ENCODING 188
SWIDTH 1440 0
DWIDTH 20 0
BBX 10 15 0 -1
BITMAP
1800
3800
1840
18C0
19C0
1B80
0700
0E00
1C00
3980
7380
E580
CD80
8F80
0180
ENDCHAR
STARTCHAR 189
ENCODING 189
SWIDTH 1440 0
DWIDTH 20 0
BBX 10 15 0 -1
BITMAP
1800
3800
1840
18C0
19C0
1B80
0700
0E00
1C00
3B80
74C0
E0C0
C080
8300
07C0
ENDCHAR
STARTCHAR 190
ENCODING 190
SWIDTH 1440 0
DWIDTH 20 0
BBX 10 15 0 -1
BITMAP
3800
4C00
1C40
0CC0
4DC0
3B80
0700
0E00
1C00
3980
7380
E580
CD80
8F80
0180
ENDCHAR
STARTCHAR 191
ENCODING 191
SWIDTH 1440 0
DWIDTH 20 0
BBX 8 12 1 -4
BITMAP
18
18
00
18
18
38
70
E0
C3
E7
7E
3C
ENDCHAR
STARTCHAR 192
ENCODING 192
SWIDTH 1440 0
DWIDTH 20 0
BBX 2 3 4 -4
BITMAP
C0
00
C0
ENDCHAR
STARTCHAR 193
ENCODING 193
SWIDTH 1440 0
DWIDTH 20 0
BBX 9 3 1 -4
BITMAP
CD80
0000
3180
ENDCHAR
STARTCHAR 194
ENCODING 194
SWIDTH 1440 0
DWIDTH 20 0
BBX 9 3 1 -4
BITMAP
FD80
0000
0180
ENDCHAR
STARTCHAR 195
ENCODING 195
SWIDTH 1440 0
DWIDTH 20 0
BBX 9 3 1 -4
BITMAP
FD80
3000
3180
ENDCHAR
STARTCHAR 196
ENCODING 196
SWIDTH 1440 0
DWIDTH 20 0
BBX 2 1 4 -2
BITMAP
C0
ENDCHAR
STARTCHAR 197
ENCODING 197
SWIDTH 1440 0
DWIDTH 20 0
BBX 5 1 3 -2
BITMAP
D8
ENDCHAR
STARTCHAR 198
ENCODING 198
SWIDTH 1440 0
DWIDTH 20 0
BBX 6 3 2 -4
BITMAP
CC
00
30
ENDCHAR
STARTCHAR 199
ENCODING 199
SWIDTH 1440 0
DWIDTH 20 0
BBX 6 1 2 -2
BITMAP
FC
ENDCHAR
STARTCHAR 200
ENCODING 200
SWIDTH 1440 0
DWIDTH 20 0
BBX 6 3 2 -4
BITMAP
FC
30
30
ENDCHAR
STARTCHAR 201
ENCODING 201
SWIDTH 1440 0
DWIDTH 20 0
BBX 2 2 4 13
BITMAP
C0
C0
ENDCHAR
STARTCHAR 202
ENCODING 202
SWIDTH 1440 0
DWIDTH 20 0
BBX 2 2 1 13
BITMAP
C0
C0
ENDCHAR
STARTCHAR 203
ENCODING 203
SWIDTH 1440 0
DWIDTH 20 0
BBX 8 3 1 -4
BITMAP
C0
18
03
ENDCHAR
STARTCHAR 204
ENCODING 204
SWIDTH 1440 0
DWIDTH 20 0
BBX 2 2 4 6
BITMAP
C0
C0
ENDCHAR
STARTCHAR 205
ENCODING 205
SWIDTH 1440 0
DWIDTH 20 0
BBX 1 3 4 -4
BITMAP
80
80
80
ENDCHAR
STARTCHAR 206
ENCODING 206
SWIDTH 1440 0
DWIDTH 20 0
BBX 4 1 3 14
BITMAP
F0
ENDCHAR
STARTCHAR 207
ENCODING 207
SWIDTH 1440 0
DWIDTH 20 0
BBX 4 1 3 12
BITMAP
F0
ENDCHAR
STARTCHAR 208
ENCODING 208
SWIDTH 1440 0
DWIDTH 20 0
BBX 2 13 4 0
BITMAP
C0
C0
C0
C0
C0
C0
C0
C0
C0
C0
C0
C0
C0
ENDCHAR
STARTCHAR 209
ENCODING 209
SWIDTH 1440 0
DWIDTH 20 0
BBX 2 2 7 13
BITMAP
C0
C0
ENDCHAR
STARTCHAR 210
ENCODING 210
SWIDTH 1440 0
DWIDTH 20 0
BBX 2 2 1 13
BITMAP
C0
C0
ENDCHAR
STARTCHAR 211
ENCODING 211
SWIDTH 1440 0
DWIDTH 20 0
BBX 2 10 4 0
BITMAP
C0
C0
00
00
00
00
00
00
C0
C0
ENDCHAR
STARTCHAR 212
ENCODING 212
SWIDTH 1440 0
DWIDTH 20 0
BBX 9 12 0 0
BITMAP
E700
F780
3180
3180
3180
3180
3180
3180
3180
3180
3180
3180
ENDCHAR
STARTCHAR 213
ENCODING 213
SWIDTH 1440 0
DWIDTH 20 0
BBX 9 12 0 0
BITMAP
E700
F780
3180
3180
3180
3180
0180
0180
0180
0180
0180
0180
ENDCHAR
STARTCHAR 214
ENCODING 214
SWIDTH 1440 0
DWIDTH 20 0
BBX 9 6 0 6
BITMAP
E700
F780
3180
3180
3180
3180
ENDCHAR
STARTCHAR 215
ENCODING 215
SWIDTH 1440 0
DWIDTH 20 0
BBX 8 12 1 0
BITMAP
FF
FF
FF
FF
FF
FF
FF
FF
FF
FF
FF
FF
ENDCHAR
STARTCHAR 216
ENCODING 216
SWIDTH 1440 0
DWIDTH 20 0
BBX 8 12 1 0
BITMAP
FF
FF
FF
FF
FF
FF
FF
FF
FF
FF
FF
FF
ENDCHAR
STARTCHAR 217
ENCODING 217
SWIDTH 1440 0
DWIDTH 20 0
BBX 8 12 1 0
BITMAP
FF
FF
FF
FF
FF
FF
FF
FF
FF
FF
FF
FF
ENDCHAR
STARTCHAR 218
ENCODING 218
SWIDTH 1440 0
DWIDTH 20 0
BBX 8 12 1 0
BITMAP
FF
FF
FF
FF
FF
FF
FF
FF
FF
FF
FF
FF
ENDCHAR
STARTCHAR 219
ENCODING 219
SWIDTH 1440 0
DWIDTH 20 0
BBX 8 12 1 0
BITMAP
FF
FF
FF
FF
FF
FF
FF
FF
FF
FF
FF
FF
ENDCHAR
STARTCHAR 220
ENCODING 220
SWIDTH 1440 0
DWIDTH 20 0
BBX 8 12 1 0
BITMAP
FF
FF
FF
FF
FF
FF
FF
FF
FF
FF
FF
FF
ENDCHAR
STARTCHAR 221
ENCODING 221
SWIDTH 1440 0
DWIDTH 20 0
BBX 8 12 1 0
BITMAP
FF
FF
FF
FF
FF
FF
FF
FF
FF
FF
FF
FF
ENDCHAR
STARTCHAR 222
ENCODING 222
SWIDTH 1440 0
DWIDTH 20 0
BBX 8 12 1 0
BITMAP
FF
FF
FF
FF
FF
FF
FF
FF
FF
FF
FF
FF
ENDCHAR
STARTCHAR 223
ENCODING 223
SWIDTH 1440 0
DWIDTH 20 0
BBX 8 12 1 0
BITMAP
FF
FF
FF
FF
FF
FF
FF
FF
FF
FF
FF
FF
ENDCHAR
STARTCHAR 224
ENCODING 224
SWIDTH 1440 0
DWIDTH 20 0
BBX 8 12 1 0
BITMAP
C3
C3
C3
E3
73
7E
FE
CE
C7
C3
C3
C3
ENDCHAR
STARTCHAR 225
ENCODING 225
SWIDTH 1440 0
DWIDTH 20 0
BBX 8 12 1 0
BITMAP
FC
FE
06
06
06
06
06
06
06
06
FF
FF
ENDCHAR
STARTCHAR 226
ENCODING 226
SWIDTH 1440 0
DWIDTH 20 0
BBX 6 12 2 0
BITMAP
78
7C
0C
0C
0C
1C
3C
7C
EC
CC
CC
CC
ENDCHAR
STARTCHAR 227
ENCODING 227
SWIDTH 1440 0
DWIDTH 20 0
BBX 8 12 1 0
BITMAP
FF
FF
0C
0C
0C
0C
0C
0C
0C
0C
0C
0C
ENDCHAR
STARTCHAR 228
ENCODING 228
SWIDTH 1440 0
DWIDTH 20 0
BBX 8 12 1 0
BITMAP
FE
FF
03
03
03
C3
C3
C3
C3
C3
C3
C3
ENDCHAR
STARTCHAR 229
ENCODING 229
SWIDTH 1440 0
DWIDTH 20 0
BBX 4 12 3 0
BITMAP
E0
F0
30
30
30
30
30
30
30
30
30
30
ENDCHAR
STARTCHAR 230
ENCODING 230
SWIDTH 1440 0
DWIDTH 20 0
BBX 6 12 2 0
BITMAP
FC
FC
30
30
30
30
30
18
18
18
18
18
ENDCHAR
STARTCHAR 231
ENCODING 231
SWIDTH 1440 0
DWIDTH 20 0
BBX 8 12 1 0
BITMAP
FE
FF
C3
C3
C3
C3
C3
C3
C3
C3
C3
C3
ENDCHAR
STARTCHAR 232
ENCODING 232
SWIDTH 1440 0
DWIDTH 20 0
BBX 8 12 1 0
BITMAP
C6
CF
DB
DB
C3
C3
C3
C3
C3
C7
FE
7C
ENDCHAR
STARTCHAR 233
ENCODING 233
SWIDTH 1440 0
DWIDTH 20 0
BBX 4 6 3 6
BITMAP
E0
F0
30
30
30
30
ENDCHAR
STARTCHAR 234
ENCODING 234
SWIDTH 1440 0
DWIDTH 20 0
BBX 8 16 1 -4
BITMAP
FE
FF
03
03
03
03
03
03
03
03
03
03
03
03
03
03
ENDCHAR
STARTCHAR 235
ENCODING 235
SWIDTH 1440 0
DWIDTH 20 0
BBX 8 12 1 0
BITMAP
FE
FF
03
03
03
03
03
03
03
03
FF
FE
ENDCHAR
STARTCHAR 236
ENCODING 236
SWIDTH 1440 0
DWIDTH 20 0
BBX 8 15 1 0
BITMAP
C0
C0
C0
FE
FF
03
03
03
03
03
07
0E
1C
38
30
ENDCHAR
STARTCHAR 237
ENCODING 237
SWIDTH 1440 0
DWIDTH 20 0
BBX 8 12 1 0
BITMAP
FE
FF
C3
C3
C3
C3
C3
C3
C3
C3
FF
FF
ENDCHAR
STARTCHAR 238
ENCODING 238
SWIDTH 1440 0
DWIDTH 20 0
BBX 8 12 1 0
BITMAP
CC
DE
77
63
C3
C3
C3
C3
C3
C3
DF
DF
ENDCHAR
STARTCHAR 239
ENCODING 239
SWIDTH 1440 0
DWIDTH 20 0
BBX 4 16 3 -4
BITMAP
E0
F0
30
30
30
30
30
30
30
30
30
30
30
30
30
30
ENDCHAR
STARTCHAR 240
ENCODING 240
SWIDTH 1440 0
DWIDTH 20 0
BBX 5 12 2 0
BITMAP
70
78
18
18
18
18
18
18
18
18
F8
F8
ENDCHAR
STARTCHAR 241
ENCODING 241
SWIDTH 1440 0
DWIDTH 20 0
BBX 8 12 1 0
BITMAP
FE
FF
C3
C3
C3
C3
C3
C3
C3
E7
7E
3C
ENDCHAR
STARTCHAR 242
ENCODING 242
SWIDTH 1440 0
DWIDTH 20 0
BBX 8 12 1 0
BITMAP
63
63
63
63
63
73
3B
1F
0F
0E
FC
F8
ENDCHAR
STARTCHAR 243
ENCODING 243
SWIDTH 1440 0
DWIDTH 20 0
BBX 8 16 1 -4
BITMAP
FE
FF
C3
C3
C3
F3
F3
03
03
03
03
03
03
03
03
03
ENDCHAR
STARTCHAR 244
ENCODING 244
SWIDTH 1440 0
DWIDTH 20 0
BBX 8 12 1 0
BITMAP
FE
FF
C3
C3
C3
F3
F3
03
03
03
FF
FF
ENDCHAR
STARTCHAR 245
ENCODING 245
SWIDTH 1440 0
DWIDTH 20 0
BBX 8 16 1 -4
BITMAP
C3
C3
C3
C3
C3
C7
CE
FC
F8
C0
C0
C0
C0
C0
C0
C0
ENDCHAR
STARTCHAR 246
ENCODING 246
SWIDTH 1440 0
DWIDTH 20 0
BBX 8 12 1 0
BITMAP
C3
C3
C3
E3
77
3E
1C
0E
07
03
FF
FF
ENDCHAR
STARTCHAR 247
ENCODING 247
SWIDTH 1440 0
DWIDTH 20 0
BBX 8 16 1 -4
BITMAP
FE
FF
03
03
03
C3
C3
C7
DE
DC
C0
C0
C0
C0
C0
C0
ENDCHAR
STARTCHAR 248
ENCODING 248
SWIDTH 1440 0
DWIDTH 20 0
BBX 8 12 1 0
BITMAP
FE
FF
03
03
03
03
03
03
03
03
03
03
ENDCHAR
STARTCHAR 249
ENCODING 249
SWIDTH 1440 0
DWIDTH 20 0
BBX 8 12 1 0
BITMAP
DB
DB
DB
DB
DB
DB
F3
E3
C3
C7
FE
7C
ENDCHAR
STARTCHAR 250
ENCODING 250
SWIDTH 1440 0
DWIDTH 20 0
BBX 9 12 0 0
BITMAP
7F00
7F80
3180
3180
3180
3180
3180
3180
3180
3180
F180
F180
ENDCHAR
STARTCHAR 251
ENCODING 251
SWIDTH 1440 0
DWIDTH 20 0
BBX 8 12 1 0
BITMAP
FF
FF
FF
FF
FF
FF
FF
FF
FF
FF
FF
FF
ENDCHAR
STARTCHAR 252
ENCODING 252
SWIDTH 1440 0
DWIDTH 20 0
BBX 8 12 1 0
BITMAP
FF
FF
FF
FF
FF
FF
FF
FF
FF
FF
FF
FF
ENDCHAR
STARTCHAR 253
ENCODING 253
SWIDTH 1440 0
DWIDTH 20 0
BBX 7 13 2 0
BITMAP
08
0C
7E
FE
CC
C8
C0
C0
C0
C0
C0
C0
C0
ENDCHAR
STARTCHAR 254
ENCODING 254
SWIDTH 1440 0
DWIDTH 20 0
BBX 7 13 1 0
BITMAP
20
60
FC
FE
66
26
06
06
06
06
06
06
06
ENDCHAR
STARTCHAR 255
ENCODING 255
SWIDTH 1440 0
DWIDTH 20 0
BBX 8 12 1 0
BITMAP
FF
FF
FF
FF
FF
FF
FF
FF
FF
FF
FF
FF
ENDCHAR
ENDFONT
